<?xml version="1.0" encoding="UTF-8"?><svg xmlns="http://www.w3.org/2000/svg" xmlns:xlink="http://www.w3.org/1999/xlink" height="727.5" preserveAspectRatio="xMidYMid meet" version="1.0" viewBox="0.0 0.0 768.1 727.5" width="768.1" zoomAndPan="magnify"><g id="change1_1"><path d="M226,134.7l-86-49.6v19.7H58.4c-4.9,0-8.9,4-8.9,8.9v42.2c0,4.9,4,8.9,8.9,8.9h81.6v19.7L226,134.7z M61.9,152.4v-35.3 h90.5v-10.6l49,28.3l-49,28.3v-10.6H61.9z"/><path d="M647.9,487.1c-60.5,0-110.5,44.6-119,102.8c-3-0.1-6-0.2-9-0.3c-6.9-0.2-13.4-0.4-19.9-0.8l-0.8,0c-0.8,0-1.7,0-2.5,0 c-7.6-32.2-36.6-56.3-71.2-56.3c-34.5,0-63.6,24.1-71.2,56.3H237.5v0.5c-13.5,0-24.9-0.9-35.1-4.3c-3-1-5.8-2.2-8.3-3.6 c-6.2-3.5-12-8.4-17-14.4c25.2-11.6,42.8-37,42.8-66.5c0-32.1-20.8-59.5-49.6-69.3c0.8-1,1.6-2,2.5-3c2.5-2.8,5.3-5.3,8.3-7.5 l1.2-1l0.3-0.2c2.7-2.5,5.7-4.9,8.7-7.1c5.5-4.1,11.4-7.6,17.4-10.4c3.1-1,6.4-1.9,10.5-2.7c14.5-2.8,30.1-3.3,45.3-3.7l0.1,0 c6.7-0.2,13.6-0.4,20.3-0.8c1.5,0,3.1,0,4.6,0c1.2,0,2.4,0,3.5,0h74.7c10.2,28.1,37.2,48.3,68.8,48.3c32.1,0,59.4-20.7,69.2-49.5 l33.3,0l0.2,0c9.3-0.3,18.6-0.7,28.1-1.1l3.7-0.1c10.8-0.1,20.9-2.9,32.7-9.2c2.7-1.5,5.6-3.1,9.2-5.3l1.3-0.8l1.2-1.1 c15.7-14,28.7-33.9,37.5-56.3c31.1-8.4,54.1-36.9,54.1-70.6c0-34.6-24.1-63.6-56.3-71.2c-6.3-12.9-14.5-23.5-24.2-31.3 c-2.6-2.4-5.2-4.7-7.8-6.8c-16.4-13.7-31.5-21.5-47.6-24.7l-1.2-0.2c-22.5-2.5-45-4.2-67.5-5.2C495.3,76.6,466,52,431,52 c-34.7,0-63.9,24.3-71.3,56.9c-4.1,0.1-8.3,0.2-12.4,0.2l-0.3,0c-26.2,0.5-53.1,1-79.9,1.1C255.6,47.6,200.6,0,134.7,0 C60.4,0,0,60.4,0,134.7C0,209,60.4,269.4,134.7,269.4c67.3,0,123.3-49.7,133.2-114.3c26.9-0.1,53.7-0.6,79.9-1.1 c5.3-0.1,10.6-0.2,16-0.3c11.2,26.2,37.1,44.5,67.3,44.5c30,0,55.8-18.1,67.1-44c22.7,1,45.3,2.6,67.8,5.1 c10.4,2.2,20.7,7.7,32.4,17.5c1.9,1.6,3.9,3.3,5.9,5.2c-25.5,11.4-43.4,37.1-43.4,66.8c0,32.4,21.2,59.9,50.4,69.5 c-4.6,7.6-10,14.4-16,19.9c-2.4,1.4-4.3,2.5-6.1,3.5c-7.2,3.9-12.5,5.5-18.3,5.5l-4.6,0.2c-18.5,0.7-39.3,1.5-59.4,2.1 c-8.8-30.5-37-52.9-70.3-52.9c-33.4,0-61.6,22.4-70.3,53H293c-2.9,0-5.9,0-8.9,0l-0.8,0c-6.4,0.4-13,0.6-19.9,0.8 c-16.3,0.5-33.1,1-50.1,4.3c-5.9,1.1-10.8,2.4-15.5,4l-1.2,0.5l-0.3,0.1c-8.3,3.8-16.4,8.6-24,14.2c-3.8,2.8-7.4,5.7-10.9,8.9 c-4.6,3.5-9,7.4-13,11.8c-4,4.4-7.8,9.3-11.1,14.5c-4.2,6.4-7.8,13.5-10.7,21.1c-30.7,8.7-53.2,37-53.2,70.4 c0,36.2,26.4,66.3,60.9,72.1c10.7,21.9,26.1,39.4,44.4,49.8l0.2,0.1c4.2,2.3,8.8,4.3,13.6,5.9c20.2,6.7,41.8,6.2,60.9,5.6l3.9-0.1 c3.4,0,6.5,0,9.5,0c12.6,0.1,25.3,0.5,37.7,0.9l1.1,0c3.9,0.1,7.8,0.3,11.8,0.4c9,0.2,18.6,0.3,29.2,0.3c4,0,8,0,11.9,0 c11.4,25.5,37.1,43.3,66.8,43.3c29.7,0,55.4-17.8,66.8-43.3l38.5,0c12.6,52.9,60.2,92.3,117,92.3c66.4,0,120.3-53.8,120.3-120.3 C768.1,540.9,714.3,487.1,647.9,487.1z M425.5,658.1c-18.1,0-34-9.2-43.5-23.1c-1.5-2.2-2.8-4.4-3.9-6.8c-1.1-2.2-2-4.5-2.7-6.8 c-1.6-5-2.5-10.4-2.5-15.9c0-1.1,0-2.1,0.1-3.1c0.1-2.3,0.4-4.6,0.9-6.9c0.5-2.3,1.1-4.6,1.8-6.9c7-20.8,26.7-35.7,49.8-35.7 c23.1,0,42.8,15,49.8,35.7c0.8,2.2,1.4,4.5,1.8,6.9c0.4,2.2,0.7,4.5,0.9,6.9c0.1,1,0.1,2.1,0.1,3.1c0,5.6-0.9,10.9-2.5,16 c-0.7,2.3-1.6,4.6-2.7,6.8c-1.1,2.3-2.4,4.6-3.9,6.7C459.6,648.9,443.6,658.1,425.5,658.1z M94.1,500.3c0-19.1,10.2-35.9,25.5-45.1 c2.5-1.5,5-2.8,7.7-3.8c2.4-1,5-1.8,7.6-2.4c3.4-0.8,7-1.2,10.6-1.3c0.4,0,0.7,0,1.1,0c2,0,4,0.1,6,0.4c2.3,0.3,4.6,0.7,6.8,1.2 c22.8,5.8,39.7,26.4,39.7,51c0,22.3-13.9,41.4-33.6,49c-2.1,0.8-4.3,1.5-6.6,2.1c-2.3,0.6-4.6,1-7,1.2c-1.8,0.2-3.6,0.3-5.5,0.3 c-1.9,0-3.8-0.1-5.7-0.3c-2.6-0.3-5.2-0.8-7.7-1.4c-2.8-0.7-5.5-1.7-8.1-2.9C106.9,540,94.1,521.6,94.1,500.3z M387.9,349.6 c7.9-19,26.7-32.5,48.6-32.5c21.9,0,40.7,13.4,48.6,32.5c0.9,2.2,1.7,4.5,2.3,6.9c0.6,2.2,1,4.5,1.3,6.9c0.3,2.1,0.4,4.2,0.4,6.4 c0,3.6-0.4,7-1,10.4c-0.5,2.4-1.1,4.7-1.9,6.9c-0.8,2.4-1.8,4.7-3,6.9c-8.8,16.9-26.4,28.4-46.7,28.4c-20,0-37.5-11.3-46.3-27.8 c-1.2-2.2-2.2-4.5-3.1-6.9c-0.8-2.2-1.5-4.5-2-6.9c-0.8-3.6-1.2-7.3-1.2-11.1c0-2.2,0.1-4.3,0.4-6.4c0.3-2.3,0.7-4.6,1.3-6.9 C386.2,354.1,387,351.8,387.9,349.6z M475.3,153.5c-9.4,14.6-25.7,24.2-44.2,24.2c-18.6,0-35-9.7-44.3-24.4 c-1.4-2.2-2.6-4.4-3.7-6.8c-1-2.2-1.8-4.5-2.5-6.8c-1.3-4.6-2.1-9.5-2.1-14.6c0-1,0-1.9,0.1-2.9c0.1-2.3,0.4-4.6,0.8-6.9 c0.4-2.4,1-4.6,1.8-6.9c7-20.9,26.7-35.9,49.9-35.9c23.3,0,43,15.2,49.9,36.2c0.7,2.2,1.3,4.5,1.8,6.9c0.4,2.2,0.7,4.5,0.8,6.9 c0,0.9,0.1,1.8,0.1,2.7c0,5.2-0.8,10.1-2.1,14.8c-0.7,2.3-1.5,4.6-2.5,6.8C477.9,149.1,476.6,151.3,475.3,153.5z M34.3,134.7 c0-55.4,45.1-100.5,100.5-100.5s100.5,45.1,100.5,100.5c0,55.4-45.1,100.5-100.5,100.5S34.3,190.1,34.3,134.7z M618.3,198.6 c2.2-0.7,4.5-1.2,6.9-1.6c2.4-0.4,4.8-0.6,7.3-0.7c0.5,0,1,0,1.5,0c3.5,0,6.8,0.3,10.1,1c2.7,0.5,5.4,1.3,7.9,2.2 c2.9,1,5.6,2.3,8.2,3.8c15.7,9.1,26.4,26.1,26.4,45.6c0,19.2-10.3,36-25.7,45.2c-2.5,1.5-5.2,2.8-8,3.9c-2.5,1-5.1,1.7-7.7,2.3 c-3.5,0.8-7.1,1.2-10.8,1.2c-0.1,0-0.2,0-0.4,0c-2.3,0-4.5-0.2-6.8-0.4c-2.3-0.3-4.6-0.7-6.8-1.3c-22.4-6-39-26.5-39-50.8 C581.3,225.2,596.9,205.2,618.3,198.6z M565.9,626c-1.4-6-2.1-12.3-2.1-18.7c0-2.6,0.1-5.1,0.3-7.6c0.2-2.3,0.5-4.6,0.9-6.8 c6.9-39.5,41.4-69.6,82.8-69.6c46.3,0,84,37.7,84,84s-37.7,84-84,84c-35.1,0-65.2-21.6-77.8-52.2 C568.3,634.9,566.9,630.5,565.9,626z"/><path d="M647.9,646.7c21.7,0,39.4-17.7,39.4-39.4s-17.7-39.4-39.4-39.4s-39.4,17.7-39.4,39.4S626.1,646.7,647.9,646.7z"/></g></svg>