<?xml version="1.0" encoding="UTF-8"?><svg xmlns="http://www.w3.org/2000/svg" xmlns:xlink="http://www.w3.org/1999/xlink" height="1352.7" preserveAspectRatio="xMidYMid meet" version="1.0" viewBox="1520.0 1323.5 960.7 1352.7" width="960.7" zoomAndPan="magnify"><g><g id="change1_1"><path d="M2312.8,2064.6c7.7,1,15.1,2.3,22.1,3.9c57,12.8,95.4,43.5,117.9,84.3c21.8,39.5,27.9,87.9,21.3,138 c-1.3,9.6-3,19.1-5.1,28.6c-13.5,59.9-54.3,122.4-105.3,166.5c-49,42.3-108.2,68.4-163.8,61.1c-4-0.5-7.9-1.2-11.7-2.1 c-52-11.7-89-52.9-110.6-105.5c-20.3-49.2-27.1-109.1-20-162.7c1.1-8.7,2.6-17.1,4.5-25.3c13.8-61.3,43.7-114.5,89.5-148.9 C2193.2,2071.2,2247.1,2055.9,2312.8,2064.6L2312.8,2064.6z M2323.3,2120c-5.6-1.3-11.4-2.3-17.3-3.1 c-50.9-6.7-91.8,4.5-122.7,27.8c-35.2,26.4-58.5,68.8-69.7,118.3c-1.5,6.8-2.7,13.6-3.7,20.6c-6,45-0.3,95,16.5,135.8 c15.4,37.5,40.2,66.5,73.4,74c2.3,0.5,4.6,0.9,6.9,1.2c39.5,5.2,84-15.5,122.4-48.6c43.1-37.2,77.3-89.1,88.3-138.2 c1.8-8.1,3.3-16,4.3-23.8c5.2-39.3,0.8-76.5-15.3-105.7C2391.1,2150.4,2364.1,2129.2,2323.3,2120L2323.3,2120z" fill="#5E2719"/></g><g id="change2_1"><path clip-rule="evenodd" d="M2309.4,2090.8c123.4,16.3,157.4,117.9,133.8,222.9 c-23.6,105-141.1,220.3-239.9,207.2s-139.1-158.6-115.5-263.6C2111.5,2152.2,2186,2074.5,2309.4,2090.8L2309.4,2090.8z" fill="#FCAF3A" fill-rule="evenodd"/></g><g id="change3_1"><path clip-rule="evenodd" d="M2309.4,2090.8c97.7,12.9,139.4,79.4,140.8,158.6 c-18.3-81.1-67-130.1-142-142.3c-77.4-12.5-159.5,21.9-207.1,107C2133.8,2131.9,2203.7,2076.8,2309.4,2090.8L2309.4,2090.8z" fill="#FFEAB2" fill-rule="evenodd"/></g><g id="change4_1"><path clip-rule="evenodd" d="M2425,2322.7c-26.8,89.4-119,195.9-219.1,182.7 c-98.3-13-141.2-141.7-118.4-246.6c-2.1,69.2,70.7,137.2,136.8,124.4c40.6-7.9,104.1-44.1,85.8-137.4 c17.5,44.6,57.1,69.6,94.6,59.2C2429,2298.2,2436.3,2285.1,2425,2322.7L2425,2322.7z" fill="#E3842B" fill-rule="evenodd"/></g><g id="change1_2"><path d="M2296.1,2245.3c-1.9-7,2.3-14.3,9.4-16.1c7-1.9,14.3,2.3,16.1,9.4c17.1,64.7,0,109.7-32.1,135.8 c-22.1,17.9-51.2,26.5-81,26c-29.4-0.5-59.6-9.7-84.5-27.4c-41.7-29.6-68.6-82.2-51.8-156c1.6-7.1,8.7-11.6,15.8-10 c7.1,1.6,11.6,8.7,10,15.8c-13.9,61.4,7.6,104.7,41.4,128.6c20.5,14.5,45.4,22.1,69.7,22.5c23.8,0.4,46.8-6.2,64-20.1 C2297.4,2333.9,2310.1,2298.1,2296.1,2245.3L2296.1,2245.3z" fill="#5E2719"/></g><g id="change3_2"><path clip-rule="evenodd" d="M2270.3,2100.8c24.4,0.3,43.1,10.3,41.8,22.5 c-1.3,12.1-22.1,21.8-46.5,21.5c-24.4-0.3-43.1-10.3-41.8-22.5C2225.1,2110.1,2245.9,2100.5,2270.3,2100.8L2270.3,2100.8z" fill="#FFEAB2" fill-rule="evenodd"/></g><g id="change3_3"><path clip-rule="evenodd" d="M2209.3,2150.6c13.6,0.2,24,5.8,23.3,12.5 c-0.7,6.8-12.3,12.1-26,12c-13.6-0.2-24-5.8-23.3-12.5C2184,2155.8,2195.7,2150.4,2209.3,2150.6L2209.3,2150.6z" fill="#FFEAB2" fill-rule="evenodd"/></g><g id="change1_3"><path d="M1623.8,1974.8c-23.5,31.2-36,71.6-35.4,121.7c0.5,50.2,13.9,109.6,42.1,178.6c3.2,7.8,2.3,16.3-1.6,23.1 l0.1,0c-20.2,34.8-35,71.2-43.8,105.4c-8.6,33.6-11.2,64.6-7.2,89.4c6.7,41.3,31.5,70.7,81.1,90.2c56.2,22.1,142.1,32,265.4,32 c121.6,0,207.5-10,264.1-32c50.1-19.5,75.7-49,82.4-90.2c4-24.8,1.4-55.8-7.2-89.4c-8.7-34.2-23.6-70.6-43.8-105.4 c-4.2-7.2-4.6-15.6-1.7-22.9c0.4-1.4,1.7-4.2,2.3-5.6l-0.1,0c0.3-1,1-2.4,1.4-3.5c26.4-66.9,38.8-124.5,38.7-173.1 c0-48.5-12.5-87.9-35.5-118.3c-8.3-11.1-6.7-26.6,3.5-35.6c14-13.8,25.1-29.2,32.5-46.2c7-16,10.9-33.5,10.9-52.7 c0-47-5.4-91.6-16.1-132.5c-10.5-39.8-26-76.2-46.7-108.1c-3.1-4.8-4.5-10.3-4.2-15.7c1.4-44.1-3.3-101.1-12.8-146.2 c-6.2-29.7-12.7-52.3-17.8-57.3c-3.6,0.8-13.3,7.5-25.9,17.1c-23.4,17.9-49.8,45-71.2,71.1c-7.3,8.8-19.1,11.7-29.3,8.1 c-37.9-12-80.9-18.1-124.1-18.1c-43.1,0-85.9,6.1-123.7,18.4c-11.2,3.6-23-0.6-29.6-9.6c-21.2-25.7-47.2-52.2-70.2-69.8 c-12.6-9.7-22.3-16.3-25.9-17.1c-5.2,5-11.6,27.6-17.8,57.3c-9.5,45.3-14.2,102.5-12.8,146.6c0.2,5.6-1.4,10.8-4.2,15.2 c-20.6,31.9-36.2,68.3-46.7,108.1c-10.8,40.9-16.1,85.4-16.1,132.5c0,19.2,3.8,36.7,10.9,52.7c7.6,17.3,19,32.9,33.3,46.9 C1630.8,1949.3,1631.7,1964.3,1623.8,1974.8L1623.8,1974.8z M1535.6,2096.9c-0.5-53.1,11.2-98.2,33.5-135.4 c-12.2-14.5-22.2-30.2-29.7-47.2c-10-22.7-15.4-47.3-15.4-74c0-51.2,6-100.3,18-145.9c11.1-42.2,27.5-81.4,49.1-116.4 c-0.8-46.7,4.3-104.6,14-150.9c9.8-46.7,26-84.2,48.6-95.3c1.4-0.7,2.8-1.3,4.4-1.8c20.9-6.5,47.5,4.9,74.6,25.7 c22.4,17.1,47,41.5,68.4,66c38.8-10.7,80.9-15.9,122.9-15.9c42.3,0,84.8,5.4,124,16c21.5-24.6,46.1-49,68.5-66.2 c27.1-20.7,53.7-32.1,74.6-25.7l2.3,0.8c23.7,9.8,40.7,48.1,50.7,96.2c9.7,46.2,14.8,104.1,14,150.9c21.6,35,37.9,74.2,49.1,116.4 c12,45.6,18,94.7,18,145.9c0,26.7-5.4,51.4-15.4,74c-7.5,17-17.5,32.7-29.7,47.2c21.8,36.3,33.5,80.2,33.5,131.7 c0,54.7-13.1,118-41.2,189.9c19.5,35.8,34,72.6,42.9,107.5c10.3,40.2,13.2,78.6,8,110.7c-9.9,61.1-45.8,104-115.5,131.2 c-63.2,24.6-155.2,35.8-283.2,35.8c-129.8,0-221.9-11.1-284.6-35.8c-69.2-27.2-104.1-70.1-114-131.2c-5.2-32.1-2.3-70.4,8-110.7 c8.9-34.9,23.5-71.8,43-107.6C1549.3,2212.5,1536.1,2150.5,1535.6,2096.9L1535.6,2096.9z" fill="#5E2719"/></g><g id="change2_2"><path clip-rule="evenodd" d="M1602.7,1958.9c-52.7,69.8-57.1,178.1,3.4,326.1 c-43.3,74.6-63.3,155.6-54.1,212.1c16.6,102.4,119.5,144.6,372.6,144.6c249.5,0,356-42.2,372.6-144.6 c9.2-56.6-10.9-137.5-54.1-212.1l0.1-0.1l0.1-0.1l0.1-0.1l0.1-0.1c0.7-1.6,1.3-3.2,1.9-4.8l0.1-0.1l0.1-0.1l0.1-0.1l0.1-0.1 l0.1-0.1l0.1-0.1l0.1-0.1l0.1-0.1l0.1-0.1l0.2-0.4l0.1-0.1l0.1-0.1l0.1-0.1l0.1-0.1l0.1-0.1l0.1-0.1l0.1-0.1l0.1-0.1l0.1-0.1 l0.1-0.1l0.1-0.1l0.1-0.1l0.1-0.1l0.1-0.1c56.7-143.4,51.3-248.7-0.2-317.1c32.7-31.9,52.3-71.4,52.3-118.6 c0-97.4-22.3-185.6-67.2-255c2.9-85.4-16.6-217-48.2-230c-25.6-7.9-85,46.5-126.3,96.7c-81.5-26-183.5-26.5-264.9,0 c-41.3-50.2-100.7-104.6-126.3-96.7c-31.6,13.1-51,144.7-48.2,230c-44.9,69.3-67.2,157.6-67.2,255 C1550.4,1887.5,1570,1926.9,1602.7,1958.9L1602.7,1958.9z" fill="#FCAF3A" fill-rule="evenodd"/></g><g id="change4_2"><path clip-rule="evenodd" d="M1611.3,2588.9c58.1,39.4,154.2,52.8,313.3,52.8 s255.2-13.3,313.3-52.8c41.2-58.9,51.7-146.2-1.4-275.2c-27.7,44.9-44.5,68.1-89.8,97.5l-134.5-65.7c-11.6,32-48.2,50.3-87.7,48.2 c-39.4,2.1-76.1-16.2-87.7-48.2l-134.5,65.7c-45.4-29.4-62.1-52.6-89.8-97.5C1559.6,2442.6,1570.1,2530,1611.3,2588.9 L1611.3,2588.9z" fill="#E3842B" fill-rule="evenodd"/></g><g id="change5_1"><path clip-rule="evenodd" d="M1765.6,1945.1c-24,23.4-45.2,57.7-69.2,81.1 c134.5,26.9,93,124.8,106,219.2c5.5,39.7,30.2,93.1,26.2,128.8c-16.5,144.7,208.4,144.7,191.9,0c-4.1-35.7,20.7-89.1,26.2-128.8 c13-94.4-28.5-192.3,106-219.2c-24-23.4-45.2-57.7-69.2-81.1c-53,26.8-106,53.5-159,80.3 C1871.6,1998.6,1818.6,1971.9,1765.6,1945.1L1765.6,1945.1z" fill="#FFF3E3" fill-rule="evenodd"/></g><g id="change6_1"><path clip-rule="evenodd" d="M1827.8,2350c1.2,8.7,1.6,16.8,0.8,24.3 c-16.5,144.7,208.4,144.7,191.9,0c-0.8-7.4-0.4-15.6,0.8-24.3l-9.1-4.4c-11.6,32-48.2,50.3-87.7,48.2 c-39.4,2.1-76.1-16.2-87.7-48.2L1827.8,2350L1827.8,2350z" fill="#E6C6A6" fill-rule="evenodd"/></g><g id="change4_3"><path clip-rule="evenodd" d="M1608.3,1969c-16.1,40.9-29.2,73.6-32.2,117.4 c-4.9,60.2,9.7,114.9,39.4,165.4c26.4,44.9,18,1.8,13.9-24.7c-17.6-111.8-4.1-170.5,114.1-185.6 C1696.3,2032.4,1649.3,2003.5,1608.3,1969L1608.3,1969z" fill="#E3842B" fill-rule="evenodd"/></g><g id="change5_2"><path clip-rule="evenodd" d="M1772.1,1540.9c-29.8,10.3-30.8,37.7,0.7,38.7 c18.8,0.6,33.7,4.4,53.9,13.6c23.7,10.7,34.3-9,28.6-27.2C1844.9,1533.1,1792.4,1533.8,1772.1,1540.9L1772.1,1540.9z" fill="#FFF3E3" fill-rule="evenodd"/></g><g id="change5_3"><path clip-rule="evenodd" d="M2077,1540.9c29.8,10.3,30.8,37.7-0.7,38.7 c-18.8,0.6-33.7,4.4-53.9,13.6c-23.7,10.7-34.3-9-28.6-27.2C2004.1,1533.1,2056.6,1533.8,2077,1540.9L2077,1540.9z" fill="#FFF3E3" fill-rule="evenodd"/></g><g id="change4_4"><path clip-rule="evenodd" d="M1613.1,1644.8c-93.1,244.4-20.2,369.1,205.3,383.9 c46.3,3,36.9-7.9-0.4-17.9c-171.4-45.7-221.9-176-189.2-356.3C1637.7,1604.9,1632.7,1593.3,1613.1,1644.8L1613.1,1644.8z" fill="#E3842B" fill-rule="evenodd"/></g><g id="change5_4"><path clip-rule="evenodd" d="M1550.7,1822.2c-0.2,6-0.3,12-0.3,18.1 c0,292.1,748.2,292.1,748.2,0c0-6.1-0.1-12.1-0.3-18.1c-62.4-28.5-127-13.7-192.7,24c-44.1-44.8-88.6-74.2-181.1-73.7 c-92.5-0.5-137.1,28.8-181.1,73.7C1677.7,1808.5,1613.1,1793.7,1550.7,1822.2L1550.7,1822.2z" fill="#FFF3E3" fill-rule="evenodd"/></g><g id="change6_2"><path clip-rule="evenodd" d="M1623.6,1807.4c-16.7-0.5-33.3,1.5-49.7,6.2 c-4.7,133.8,78.6,204.2,244.6,215.2c46.3,3,36.9-7.9-0.4-17.9C1700,1979.4,1639.2,1907.8,1623.6,1807.4L1623.6,1807.4z" fill="#E6C6A6" fill-rule="evenodd"/></g><g id="change1_4"><path d="M1823.2,1861.9c-0.9-6.1,3.2-11.8,9.3-12.7c6.1-0.9,11.8,3.2,12.7,9.3c1.2,7.9,7.1,13,14.7,15.3 c4.8,1.4,10.3,1.8,15.9,1.1c5.7-0.7,11.5-2.5,16.8-5.3c11.8-6.4,21-18.5,20.8-36.3l-0.4-30.9c-0.1-6.2,4.9-11.2,11-11.3 c6.2-0.1,11.2,4.9,11.3,11l0.4,30.9c0.4,27.4-14,46.2-32.5,56.2c-7.8,4.2-16.3,6.8-24.7,7.8c-8.5,1-17.1,0.4-24.8-1.9 C1838,1890.6,1825.9,1879.5,1823.2,1861.9L1823.2,1861.9z" fill="#5E2719"/></g><g id="change1_5"><path clip-rule="evenodd" d="M1865.9,1783.3c11.2,19.4,32.2,29.1,58.7,37.8 c26.5-8.8,47.5-18.4,58.7-37.8C2006.5,1742.8,1842.6,1742.8,1865.9,1783.3L1865.9,1783.3z" fill="#5E2719" fill-rule="evenodd"/></g><g id="change1_6"><path d="M2003.8,1858.5c0.9-6.1,6.7-10.3,12.7-9.3c6.1,0.9,10.3,6.7,9.3,12.7c-2.7,17.6-14.9,28.7-30.4,33.3 c-7.7,2.3-16.3,2.9-24.8,1.9c-8.4-1-17-3.6-24.7-7.8c-18.5-10-32.9-28.8-32.5-56.2l0.4-30.9c0.1-6.2,5.1-11.1,11.3-11 c6.2,0.1,11.1,5.1,11,11.3l-0.4,30.9c-0.2,17.8,9,29.9,20.8,36.3c5.3,2.8,11,4.6,16.8,5.3c5.6,0.7,11.1,0.3,15.9-1.1 C1996.7,1871.5,2002.6,1866.4,2003.8,1858.5L2003.8,1858.5z" fill="#5E2719"/></g><g id="change1_7"><path clip-rule="evenodd" d="M1743.7,1454.6c-21.8-23.8-47.1-42.5-59.6-38.2 c-14.1,6.3-23.8,55.3-26.2,98.7c-1.7,31.6,0.1,31.3,13.5,14.4c18.7-23.6,41.9-41.5,70.1-56.3 C1754.9,1466.1,1754.2,1466.1,1743.7,1454.6L1743.7,1454.6z" fill="#5E2719" fill-rule="evenodd"/></g><g id="change1_8"><path clip-rule="evenodd" d="M2105.4,1454.6c21.8-23.8,47.1-42.5,59.6-38.2 c14.1,6.3,23.8,55.3,26.2,98.7c1.7,31.6-0.1,31.3-13.5,14.4c-18.7-23.6-41.9-41.5-70.1-56.3 C2094.1,1466.1,2094.9,1466.1,2105.4,1454.6L2105.4,1454.6z" fill="#5E2719" fill-rule="evenodd"/></g><g id="change3_4"><path clip-rule="evenodd" d="M1792.1,1452c90.9-17,180-15.3,266.9,10.1 c64.5-73.9,105.3-104.3,121.2-95.9c23.4,12.4,40.6,128.1,38.2,226.1c39.8,56.3,63.5,120.4,78.1,197.8 c-6.4-77.5-28.1-147.6-65.1-204.8c2.9-85.4-16.6-217-48.2-230c-25.6-7.9-85,46.5-126.3,96.7l0.1,0 C1975.4,1425.6,1873.8,1425.6,1792.1,1452L1792.1,1452z" fill="#FFEAB2" fill-rule="evenodd"/></g><g id="change5_5"><path clip-rule="evenodd" d="M1673,2388.2c9.8,7.7,19.6,15.4,29.4,23 c60.5,4.3,117.3,3.1,134.5-57l-9.3-14.3C1777.5,2329.5,1708.5,2346.6,1673,2388.2L1673,2388.2z" fill="#FFF3E3" fill-rule="evenodd"/></g><g id="change1_9"><path d="M1813.7,2255.5c6.1,27.5,15.5,56,29.1,86.1c4.6,10.1,5.9,19.6,4.6,28.3c-2.3,15.5-12.4,27.8-26.9,37 c-12.8,8.1-29.1,13.9-45.9,17.4c-29.8,6.2-62.4,5.3-80.6-2.1l-0.9-0.4l-0.9-0.5c-22.9-13.6-45.3-34.4-64.8-58 c-21.2-25.7-39.2-54.9-51.2-82.1l24.2-10.7c11,25,27.7,52.1,47.4,75.8c17.5,21.2,37.1,39.6,57,51.6c14,5.3,39.9,5.5,64.5,0.4 c14-2.9,27.2-7.5,37.1-13.8c8.2-5.2,13.8-11.4,14.8-18.5c0.6-3.9-0.2-8.4-2.5-13.7c-14.3-31.6-24.3-61.9-30.8-91.3 c-7.6-34.6-11-63.3-4-85.1c6-18.7,18-25.9,20.1,6C1805.8,2208.8,1807.3,2226.6,1813.7,2255.5L1813.7,2255.5z" fill="#5E2719"/></g><g id="change4_5"><path clip-rule="evenodd" d="M2240.8,1969c12,30.6,36.7,84,32.2,149.6 c-3.6,53.1-22.7,37.2-34.9,10c-28.1-62.7-69.4-78.9-132.5-87C2152.8,2032.4,2199.8,2003.5,2240.8,1969L2240.8,1969z" fill="#E3842B" fill-rule="evenodd"/></g><g id="change5_6"><path clip-rule="evenodd" d="M2176.1,2388.2c-9.8,7.7-19.6,15.4-29.4,23 c-60.5,4.3-117.3,3.1-134.5-57l9.3-14.3C2071.6,2329.5,2140.6,2346.6,2176.1,2388.2L2176.1,2388.2z" fill="#FFF3E3" fill-rule="evenodd"/></g><g id="change1_10"><path d="M2035.4,2255.5c-6.1,27.5-15.5,56-29.1,86.1c-4.6,10.1-5.9,19.6-4.6,28.3c2.3,15.5,12.4,27.8,26.9,37 c12.8,8.1,29.1,13.9,45.9,17.4c29.8,6.2,62.4,5.3,80.6-2.1l0.9-0.4l0.9-0.5c22.9-13.6,45.3-34.4,64.8-58 c21.2-25.7,39.2-54.9,51.2-82.1l-24.2-10.7c-11,25-27.7,52.1-47.4,75.8c-17.5,21.2-37.1,39.6-57,51.6c-14,5.3-39.9,5.5-64.5,0.4 c-14-2.9-27.2-7.5-37.1-13.8c-8.2-5.2-13.8-11.4-14.8-18.5c-0.6-3.9,0.2-8.4,2.5-13.7c14.3-31.6,24.3-61.9,30.8-91.3 c7.6-34.6,11-63.3,4-85.1c-6-18.7-18-25.9-20.1,6C2043.3,2208.8,2041.8,2226.6,2035.4,2255.5L2035.4,2255.5z" fill="#5E2719"/></g><g id="change1_11"><path clip-rule="evenodd" d="M1736.6,2032.3c-55.8-18.5-114.4-52.4-146.4-85.5 c-2.8,9.6-8.4,21.7-11.2,31.3c38.1,31.2,96.5,63.3,153.7,71.5C1764.6,2054.2,1764.1,2041.4,1736.6,2032.3L1736.6,2032.3z" fill="#5E2719" fill-rule="evenodd"/></g><g id="change1_12"><path clip-rule="evenodd" d="M2112.5,2032.3c55.8-18.5,114.4-52.4,146.4-85.5 c2.8,9.6,8.4,21.7,11.2,31.3c-38.1,31.2-96.5,63.3-153.7,71.5C2084.5,2054.2,2085,2041.4,2112.5,2032.3L2112.5,2032.3z" fill="#5E2719" fill-rule="evenodd"/></g><g id="change6_3"><path clip-rule="evenodd" d="M1924.8,1930.7C2105.6,1997,1744,1997,1924.8,1930.7 L1924.8,1930.7z" fill="#E6C6A6" fill-rule="evenodd"/></g><g id="change6_4"><path clip-rule="evenodd" d="M1924.5,2087.2c-41.5-0.1-87.6-21.1-92.5-8.7 c-4.2,10.5,34.3,61.3,92.5,61.3c62,0,96.8-50.9,92.5-61.3C2012.1,2066.2,1966,2087.2,1924.5,2087.2L1924.5,2087.2z" fill="#E6C6A6" fill-rule="evenodd"/></g><g id="change1_13"><path clip-rule="evenodd" d="M1861.7,1722.1c0.1,9.4-7.4,9.9-16.2,4 c-43-28.8-70.3-31.7-121.1-12.2c-11.7,4.5-19.4,4.9-18.7-5.8c1.4-22.2,47.1-37.9,80.3-34.6 C1819.8,1677,1861.4,1699.1,1861.7,1722.1L1861.7,1722.1z" fill="#5E2719" fill-rule="evenodd"/></g><g id="change1_14"><path clip-rule="evenodd" d="M1996.4,1719c0.2,9.4,7.4,9.5,15.4,3.3 c39.5-30.7,65.2-34.9,114-17.7c11.2,3.9,18.5,4,17.5-6.6c-2.2-22.1-46-35.7-77.3-30.8C2034.2,1672,1995.8,1695.9,1996.4,1719 L1996.4,1719z" fill="#5E2719" fill-rule="evenodd"/></g><g id="change1_15"><path d="M1673.9,2452.9c-5.1,0.8-9.9,2.6-13.2,5.8c-3,2.9-5.4,7.2-6.6,13.4c-2.7,13.3-15.7,21.8-28.9,19.1 c-2.9-0.6-5.5-1.7-7.9-3.1c-5.7-3.4-10.1-4.9-13.4-4.8c-1.9,0-3.7,1.1-5.2,2.8c-3.1,3.4-5.5,9-7.2,15.7c-3.5,13.9-3,30.7,1.7,45.4 c8.9,27.6,22.5,49.1,41.1,61.8c16.5,11.2,38.1,15.8,65,11.7c26.9-4,46.1-14.8,58.6-30.4c14.1-17.6,20.8-42.1,21.1-71 c0.2-15.5-4.3-31.8-11.7-44c-3.5-5.8-7.5-10.3-11.6-12.7l-1-0.6c-1.7-0.8-3.4-1-5-0.6c-3.1,0.9-6.9,3.6-11.4,8.6 c-9,10.1-24.5,10.9-34.6,1.9c-2.2-1.9-3.9-4.1-5.2-6.5c-3-5.4-6.5-8.9-10.3-10.8C1684.1,2452.5,1679.1,2452.2,1673.9,2452.9 L1673.9,2452.9z M1626.7,2423.4c11.4-10.9,25.4-16.9,39.9-19.1c14.5-2.2,29.7-0.6,43.8,6.5c4.6,2.3,9,5.2,13.2,8.7 c4.3-2.4,8.7-4.1,13-5.4c14.9-4.2,29.1-1.9,41.9,5.1c0.7,0.3,1.5,0.7,2.2,1.2c11.2,6.7,20.9,17.1,28.5,29.7 c11.9,19.6,19.1,45.4,18.8,69.7c-0.5,39.8-10.5,74.7-31.9,101.4c-20.2,25.2-49.7,42.3-89.6,48.3c-39.9,6-73.1-1.7-99.8-19.8 c-28.2-19.2-48.2-49.5-60.3-87.3c-7.5-23.3-8.2-50.1-2.7-72.3c3.5-14.1,9.7-26.9,18.6-36.6c10.4-11.5,23.9-18.6,40.4-19 c4.5-0.1,9.1,0.3,13.9,1.3C1619.6,2431,1623,2427,1626.7,2423.4L1626.7,2423.4z" fill="#5E2719"/></g><g id="change5_7"><path clip-rule="evenodd" d="M1670.3,2428.6c-18.4,2.8-35.2,14.1-40.2,38.6 c-54.3-32.7-76.4,37.5-60.3,87.6c20.2,63,63.6,100.8,133.1,90.3c69.5-10.5,99.8-59.4,100.6-125.5c0.6-52.6-41.2-113.1-83.4-65.9 C1708,2431.7,1688.7,2425.8,1670.3,2428.6L1670.3,2428.6z" fill="#FFF3E3" fill-rule="evenodd"/></g><g id="change6_5"><path clip-rule="evenodd" d="M1578.5,2502.9c-13.5,74.5,41.5,146.4,122.7,134.2 c47.5-7.2,74.9-34.1,85.8-72.6c4.7-16.6,0.1-11.1-11.6-4.1c-74.5,44.2-156.5,8.1-187.2-59.7 C1583.8,2490.7,1580.5,2492,1578.5,2502.9L1578.5,2502.9z" fill="#E6C6A6" fill-rule="evenodd"/></g><g id="change1_16"><path clip-rule="evenodd" d="M1675.1,2460.8c12.5-1.9,24.6,8.8,26.8,23.9 c2.3,15.1-6.1,28.8-18.6,30.7c-12.5,1.9-24.6-8.8-26.8-23.9C1654.3,2476.4,1662.6,2462.7,1675.1,2460.8L1675.1,2460.8z" fill="#5E2719" fill-rule="evenodd"/></g><g id="change1_17"><path clip-rule="evenodd" d="M1610.2,2486.9c12.5-1.9,24.6,8.8,26.8,23.9 c2.3,15.1-6.1,28.8-18.6,30.7c-12.5,1.9-24.6-8.8-26.8-23.9C1589.3,2502.5,1597.7,2488.8,1610.2,2486.9L1610.2,2486.9z" fill="#5E2719" fill-rule="evenodd"/></g><g id="change1_18"><path clip-rule="evenodd" d="M1747.9,2466.1c12.5-1.9,24.6,8.8,26.8,23.9 c2.3,15.1-6.1,28.9-18.6,30.7c-12.5,1.9-24.6-8.8-26.8-23.9C1727,2481.8,1735.3,2468,1747.9,2466.1L1747.9,2466.1z" fill="#5E2719" fill-rule="evenodd"/></g><g id="change1_19"><path clip-rule="evenodd" d="M1746.5,2568.4c3.3,21.6-18.3,42.7-48,47.2 c-29.8,4.5-56.6-9.4-59.8-31c-3.3-21.6,18.3-42.7,48-47.2C1716.4,2532.9,1743.2,2546.8,1746.5,2568.4L1746.5,2568.4z" fill="#5E2719" fill-rule="evenodd"/></g><g id="change1_20"><path d="M2164.3,2453.6c-5.1-1-10.1-0.8-14.4,1.1c-3.9,1.7-7.6,5-10.8,10.3c-7,11.6-22.1,15.3-33.6,8.3 c-2.4-1.5-4.5-3.3-6.2-5.4c-4.3-5.2-7.9-8-11.1-9.1c-1.8-0.6-3.9-0.2-5.9,0.9c-4.2,2.3-8.4,6.6-12.2,12.3 c-7.9,11.9-13.1,27.9-13.6,43.3c-0.9,28.9,4.7,53.8,18,71.9c11.8,16.2,30.6,27.7,57.2,32.9c26.7,5.2,48.4,1.6,65.4-8.9 c19.1-11.8,33.6-32.7,43.7-59.9c5.4-14.6,6.6-31.4,3.8-45.3c-1.4-6.6-3.6-12.2-6.7-15.9c-1.5-1.8-3.2-2.9-5-3.1 c-3.4-0.2-7.9,1-13.7,4.2c-11.9,6.5-26.8,2.1-33.3-9.8c-1.4-2.5-2.3-5.2-2.7-7.9c-1-6.2-3.2-10.6-6.1-13.6 C2174,2456.6,2169.4,2454.6,2164.3,2453.6L2164.3,2453.6z M2129.7,2409.9c14.4-6.5,29.6-7.4,44-4.6c14.4,2.8,28.2,9.4,39.1,20.8 c3.6,3.7,6.8,7.9,9.5,12.6c4.8-0.8,9.5-1,13.9-0.7c16.6,1.2,29.8,8.8,39.6,20.7c8.3,10,13.9,23.1,16.9,37.5 c4.6,22.5,2.7,49.3-5.7,72.1c-13.8,37.3-35,66.7-64.1,84.7c-27.5,17-61,23.2-100.6,15.5c-39.6-7.7-68.3-26.1-87.4-52.2 c-20.1-27.5-28.7-62.8-27.4-102.5c0.8-24.4,9.1-49.9,21.8-69c8.1-12.2,18.2-22.1,29.7-28.3c13.6-7.3,28.7-9.5,44.4-4.4 c4.3,1.4,8.6,3.4,12.8,5.9C2120.5,2414.7,2125,2412,2129.7,2409.9L2129.7,2409.9z" fill="#5E2719"/></g><g id="change5_8"><path clip-rule="evenodd" d="M2169,2429.4c-18.3-3.6-37.9,1.5-50.8,22.9 c-40.2-49-84.5,9.7-86.2,62.2c-2.1,66.1,26.1,116.3,95,129.8c69,13.5,114-22.4,136.9-84.5c18.2-49.3-0.8-120.4-56.4-90.1 C2203.5,2445,2187.3,2433,2169,2429.4L2169,2429.4z" fill="#FFF3E3" fill-rule="evenodd"/></g><g id="change6_6"><path clip-rule="evenodd" d="M2057.6,2468.6c-37.7,65.6-10.1,151.9,70.5,167.6 c47.2,9.2,82-7,105.2-39.6c10-14.1,3.8-10.4-9.5-7.8c-85,16.6-150.1-45-156.2-119.1C2066.7,2458.9,2063.1,2459,2057.6,2468.6 L2057.6,2468.6z" fill="#E6C6A6" fill-rule="evenodd"/></g><g id="change1_21"><path clip-rule="evenodd" d="M2162.8,2461.3c12.4,2.4,20.2,16.5,17.2,31.5 c-2.9,15-15.4,25.1-27.8,22.7c-12.4-2.4-20.2-16.5-17.2-31.5C2137.9,2469.1,2150.3,2458.9,2162.8,2461.3L2162.8,2461.3z" fill="#5E2719" fill-rule="evenodd"/></g><g id="change1_22"><path clip-rule="evenodd" d="M2092.9,2464.1c12.4,2.4,20.2,16.5,17.2,31.5 c-2.9,15-15.4,25.1-27.8,22.7c-12.4-2.4-20.2-16.5-17.2-31.5C2067.9,2471.9,2080.4,2461.7,2092.9,2464.1L2092.9,2464.1z" fill="#5E2719" fill-rule="evenodd"/></g><g id="change1_23"><path clip-rule="evenodd" d="M2229.5,2490.8c12.5,2.4,20.2,16.5,17.2,31.5 c-2.9,15-15.4,25.1-27.8,22.7c-12.4-2.4-20.2-16.5-17.2-31.5C2204.6,2498.6,2217.1,2488.4,2229.5,2490.8L2229.5,2490.8z" fill="#5E2719" fill-rule="evenodd"/></g><g id="change1_24"><path clip-rule="evenodd" d="M2193.8,2586.6c-4.2,21.4-31.5,34.1-61.1,28.3 c-29.6-5.8-50.1-27.8-45.9-49.3c4.2-21.4,31.5-34.1,61.1-28.3C2177.5,2543.2,2198,2565.2,2193.8,2586.6L2193.8,2586.6z" fill="#5E2719" fill-rule="evenodd"/></g></g></svg>